<?xml version="1.0" ?><svg id="Layer_1" height="32px" width="32px" fill="#ededed" style="enable-background:new 0 0 50 50;" version="1.1" viewBox="0 0 50 50" xml:space="preserve" xmlns="http://www.w3.org/2000/svg" xmlns:xlink="http://www.w3.org/1999/xlink"><g id="Layer_1_1_"><path d="M11,7H5v42h34v-6h6V1H11V7z M37,47H7V9h4h19v7h7v27V47z M32,10.414L35.586,14H32V10.414z M13,3h30v38h-4V14.586L31.414,7   H13V3z"/><path d="M22,14H10v12h12V14z M20,24h-8v-8h8V24z"/><rect height="2" width="9" x="25" y="19"/><rect height="2" width="9" x="25" y="24"/><rect height="2" width="15" x="10" y="29"/><rect height="2" width="6" x="28" y="29"/><rect height="2" width="6" x="10" y="34"/><rect height="2" width="15" x="19" y="34"/><rect height="2" width="14" x="10" y="39"/><rect height="2" width="7" x="27" y="39"/></g></svg>