<?xml version="1.0" ?><svg data-name="Layer 2" id="e73e2821-510d-456e-b3bd-9363037e93e3" viewBox="0 0 35 35" xmlns="http://www.w3.org/2000/svg"><path d="M11.933,15.055H3.479A3.232,3.232,0,0,1,.25,11.827V3.478A3.232,3.232,0,0,1,3.479.25h8.454a3.232,3.232,0,0,1,3.228,3.228v8.349A3.232,3.232,0,0,1,11.933,15.055ZM3.479,2.75a.73.73,0,0,0-.729.728v8.349a.73.73,0,0,0,.729.728h8.454a.729.729,0,0,0,.728-.728V3.478a.729.729,0,0,0-.728-.728Z"/><path d="M11.974,34.75H3.52A3.233,3.233,0,0,1,.291,31.521V23.173A3.232,3.232,0,0,1,3.52,19.945h8.454A3.232,3.232,0,0,1,15.2,23.173v8.348A3.232,3.232,0,0,1,11.974,34.75ZM3.52,22.445a.73.73,0,0,0-.729.728v8.348a.73.73,0,0,0,.729.729h8.454a.73.73,0,0,0,.728-.729V23.173a.729.729,0,0,0-.728-.728Z"/><path d="M31.522,34.75H23.068a3.233,3.233,0,0,1-3.229-3.229V23.173a3.232,3.232,0,0,1,3.229-3.228h8.454a3.232,3.232,0,0,1,3.228,3.228v8.348A3.232,3.232,0,0,1,31.522,34.75Zm-8.454-12.3a.73.73,0,0,0-.729.728v8.348a.73.73,0,0,0,.729.729h8.454a.73.73,0,0,0,.728-.729V23.173a.729.729,0,0,0-.728-.728Z"/><path d="M27.3,15.055a7.4,7.4,0,1,1,7.455-7.4A7.437,7.437,0,0,1,27.3,15.055Zm0-12.3a4.9,4.9,0,1,0,4.955,4.9A4.935,4.935,0,0,0,27.3,2.75Z"/></svg>