<?xml version="1.0" ?><!DOCTYPE svg  PUBLIC '-//W3C//DTD SVG 1.1//EN'  'http://www.w3.org/Graphics/SVG/1.1/DTD/svg11.dtd'><svg enable-background="new 0 0 512 512" id="Layer_1" version="1.1" height="32px" width="32px" viewBox="0 0 512 512" xml:space="preserve" xmlns="http://www.w3.org/2000/svg" xmlns:xlink="http://www.w3.org/1999/xlink"><g><g><path d="M400.5,0.2H111.5c-37.8,0-68.8,31-68.8,68.8v374c0,37.8,31,68.8,68.8,68.8h289.1c37.8,0,68.8-31,68.8-68.8    V69C469.3,31.2,438.4,0.2,400.5,0.2z M422.5,404.7c0,29.8-24.4,54.1-54.1,54.1H141c-29.8,0-54.1-24.4-54.1-54.1V110.5    c0-29.8,24.4-54.1,54.1-54.1h227.4c29.8,0,54.1,24.4,54.1,54.1V404.7z" fill="#ededed"/></g><g><path d="M388.1,253.7v5.9c0,11.3-9.2,20.5-20.5,20.5H211.4c-11.3,0-20.5-9.2-20.5-20.5v-5.9    c0-11.3,9.2-20.5,20.5-20.5h156.2C378.9,233.2,388.1,242.4,388.1,253.7z" fill="#ededed"/><path d="M388.1,343.1v5.9c0,11.3-9.2,20.5-20.5,20.5H211.4c-11.3,0-20.5-9.2-20.5-20.5v-5.9    c0-11.3,9.2-20.5,20.5-20.5h156.2C378.9,322.7,388.1,331.9,388.1,343.1z" fill="#ededed"/><path d="M388.1,162.5v5.9c0,11.3-9.2,20.5-20.5,20.5H211.4c-11.3,0-20.5-9.2-20.5-20.5v-5.9    c0-11.3,9.2-20.5,20.5-20.5h156.2C378.9,142,388.1,151.2,388.1,162.5z" fill="#ededed"/><circle cx="147.8" cy="165.8" fill="#ededed" r="23.8"/><circle cx="147.8" cy="253.6" fill="#ededed" r="23.8"/><circle cx="147.8" cy="346.1" fill="#ededed" r="23.8"/></g></g></svg>